<svg version="1.2" xmlns="http://www.w3.org/2000/svg" viewBox="0 0 125 38" width="125" height="38"><style>.a{fill:#0b36a8}.b{fill:#fff}</style><circle class="a" cx="19" cy="19" r="19"/><path class="b" d="m11.9 15.2q-0.1-0.3-0.1-0.7 0 0.2 0-0.2 0.1-0.3 0.1-1.2 0.1 0 0.1 0 0-0.1 0-0.1 0.1-0.1 0.1-0.1 0 0 0-0.1 0.1-0.1 0.1-0.2 0 0 0-0.1-0.1 0-0.1 0 0-0.1 0-0.1-0.1 0-0.1-0.1 0 0 0 0 0 0 0-0.1 0 0-0.1 0 0 0 0-0.1 0.2-0.9 0.3-1.7 0-0.1 0-0.2 0 0 0.1-0.1 0-0.1 0-0.1 0.1-0.1 0.1-0.1 0.1-0.1 0.2-0.2 0.1-0.1 0.2-0.2 0 0 0.1-0.1 0.1-0.1 0.2-0.1 0.1-0.1 0.2-0.2 0.1 0 0.1-0.1 0.1-0.1 0.2-0.1 0.1-0.1 0.2-0.1 0.1-0.1 0.1-0.1 0.1-0.1 0.2-0.1 0.1 0 0.2-0.1 0 0 0.1 0 0.1-0.1 0.2-0.1 0 0 0.1 0 0-0.1 0.1-0.1 0 0 0.1-0.1 0 0 0 0 0.1 0 0.1 0 0 0 0 0 0-0.1 0.1-0.1 0 0 0.1 0.1 0 0 0.1 0 0 0 0.1 0.1 0 0 0 0.1 0.1 0.1 0.1 0.2 0 0 0 0.1 0.1 0.1 0.1 0.2 0 0.1 0 0.2 0 0.1-0.1 0.2 0 0.1 0 0.2 0 0.1 0 0.1 0 0.1-0.1 0.2 0 0.1 0 0.2 0 0.1-0.1 0.1 0 0.1 0 0.2 0 0.1 0 0.2 0 0.1 0 0.7 0.1 0.6 0.1 1.7 0 0.2 0 0.4 0 0.3 0.1 0.5 0 0.2 0 0.4 0.1 0.2 0.1 0.4 0.1 0.3 0.2 0.5 0 0.3 0.1 0.5 0.1 0.2 0.1 0.5 0.1 0.2 0.2 0.4 0.1 0.3 0.2 0.6 0.1 0.2 0.2 0.4 0.1 0.3 0.3 0.5 0.1 0.3 0.3 0.5 0.1 0.1 0.2 0.2 0.2 0.1 0.3 0.2 0.2 0.1 0.3 0.2 0.2 0 0.4 0 0.2 0 0.4-0.1 0.1 0 0.3-0.1 0.2-0.1 0.3-0.2 0.2-0.1 0.3-0.3 0.3-0.2 0.6-0.4 0.2-0.3 0.5-0.5 0.2-0.2 0.5-0.5 0.2-0.3 0.4-0.5 0.9-1.1 1.6-1.9 0.1-0.2 0.3-0.4 0.1-0.2 0.3-0.4 0.1-0.2 0.2-0.5 0.2-0.2 0.3-0.4 0.1-0.1 0.2-0.3 0.1-0.1 0.2-0.3 0.1-0.1 0.3-0.3 0.1-0.1 0.2-0.3 0.2-0.1 0.3-0.2 0.1-0.2 0.3-0.3 0.1-0.1 0.3-0.2 0.2-0.1 0.3-0.2l0.4-0.2q0 0 0-0.1 0 0 0.1 0 0 0 0 0 0 0 0.1 0 0.1 0 0.1 0 0.1 0.1 0.1 0.1 0.1 0.1 0.1 0.2 0.1 0 0.1 0.1 0 0.2 0.1 0.3 0 0.1 0 0.3 0 0.2 0 0.3 0 0.2 0 0.3-0.1 0.7-0.1 1.5-0.2 1.1-0.4 2.3-0.3 1.2-0.7 2.5-0.2 0.7-0.4 1.2 0 0.1 0 0.2-0.1 0.1-0.1 0.2 0 0.1 0 0.2-0.1 0.1-0.1 0.2 0 0.2-0.1 0.5 0 0.3-0.1 0.7-0.1 0.4-0.3 0.8 0 0.1-0.1 0.1 0 0.1-0.1 0.2 0 0.1 0 0.2 0 0.1-0.1 0.2-0.1 0.4-0.1 1 0 0.1 0 0.2-0.1 0.2-0.1 0.4-0.3 1.5-0.7 3 0 0 0 0 0 0.1 0 0.1-0.1 0.1-0.1 0.1 0 0.1 0 0.1-0.1 0-0.1 0.1-0.1 0-0.1 0-0.1 0-0.2 0.1 0 0-0.1 0.1 0 0-0.1 0.1-0.1 0-0.1 0.1-0.1 0.1-0.2 0.2 0 0-0.1 0.1 0 0.1-0.1 0.1 0 0.1-0.1 0.1 0 0.1-0.1 0.1-0.1 0.1-0.1 0.1-0.1 0.1-0.1 0.1 0 0 0 0-0.1 0.1-0.1 0.1-0.1 0-0.1 0 0 0 0 0-0.1 0-0.1 0 0 0-0.1-0.1 0 0 0 0 0 0 0 0 0-0.1-0.1-0.1 0 0 0-0.1 0 0 0 0 0-0.1 0-0.1 0 0 0 0 0.1-0.1 0.1-0.1 0 0 0 0 0-0.2 0.1-0.4 0.1-0.2 0.1-0.4 0-0.2 0.1-0.3 0-0.2 0-0.4 0.2-1 0.3-2.4 0.1-0.3 0.3-1.6 0.2-1.3 0.6-3.7 0.1-0.4 0.2-0.9 0.1-0.6 0.2-1.3 0.2-0.3 0.2-0.6 0 0 0-0.1 0.1 0 0.1-0.1 0 0 0-0.1 0 0 0-0.1 0 0 0 0 0-0.1 0-0.1 0 0 0 0-0.1-0.1-0.1-0.1 0 0 0 0 0 0 0 0-0.1-0.1-0.1-0.1 0 0 0 0-0.1 0.1-0.1 0.1-0.1 0-0.1 0 0 0.1-0.1 0.1 0 0-0.1 0.1 0 0.1-0.1 0.1-0.1 0.1-0.2 0.2 0 0.1-0.1 0.2-0.1 0.1-0.2 0.2-0.2 0.2-0.4 0.5-0.2 0.3-0.4 0.6-0.5 0.4-0.8 0.8l-1.1 1.1-0.4 0.2q-0.2 0.1-0.5 0.3-0.1 0.1-0.2 0.3-0.1 0.1-0.2 0.2-0.1 0.1-0.2 0.2-0.2 0-0.3 0.1-0.1 0.1-0.3 0.1-0.1 0.1-0.3 0.1-0.1 0.1-0.3 0.1-0.1 0-0.3 0-0.1 0-0.3 0-0.1 0-0.3-0.1-0.2 0-0.3-0.1-0.1-0.1-0.3-0.2-0.1-0.1-0.3-0.2-0.2-0.2-0.3-0.3-0.1-0.2-0.3-0.4-0.1-0.1-0.2-0.3-0.2-0.4-0.5-0.8-0.2-0.4-0.5-0.8-0.1 0.1-0.1 0.3-0.1 0.1-0.1 0.3 0 0.1-0.1 0.3 0 0.1 0 0.3-0.2 1.1-0.5 3.3-0.4 2.3-0.6 3.5 0 0.2 0 0.4-0.1 0.3-0.1 0.5 0 0.2 0 0.4 0 0.2 0 0.4 0 0.1-0.1 0.2 0 0.1 0 0.2 0 0.1-0.1 0.2 0 0.1 0 0.2-0.1 0-0.1 0.1-0.1 0.1-0.1 0.1-0.1 0-0.2 0.1 0 0-0.1 0-0.1 0-0.1 0-0.1 0-0.2 0 0 0-0.1 0.1 0 0-0.1 0-0.3 0.1-0.7 0.2 0 0 0-0.1-0.1 0-0.1 0 0 0 0 0 0 0 0 0-0.1 0-0.1 0 0 0 0 0 0-0.1 0-0.1 0 0 0 0l0.1-0.6-0.2-0.5q0.1-0.5 0.2-0.9 0.1-0.9 0.1-1.7 0-0.1 0-0.2 0.1 0 0.1-0.1 0-0.1 0-0.2 0 0 0-0.1 0.1-0.1 0.1-0.1 0-0.1 0-0.2 0-0.1 0-0.1 0-0.1 0-0.2 0 0 0-0.1 0 0 0 0 0-0.1 0-0.1 0-0.1 0-0.1 0 0 0-0.1 0 0 0 0 0-0.1-0.1-0.1 0-0.1 0-0.1 0.1-0.3 0.1-0.6 0-0.3 0-0.6 0.1-0.3 0.1-0.6 0-0.3 0.1-0.6 0.1-0.3 0.1-0.7 0-0.3 0.1-0.6 0-0.3 0-0.6 0.1-0.3 0.1-0.6-0.1-0.4-0.1-0.7 0-0.5 0.2-1.4 0.2-0.8 0.4-1.8z"/></svg>